Coordinates
version=1
nRows=13
nColumns=36
inDegrees=yes

Units are S.I. units (second, meters, Newtons, ...)
If the header above contains a line with 'inDegrees', this indicates whether rotational values are in degrees (yes) or radians (no).

endheader
time	pelvis_tilt	pelvis_list	pelvis_rotation	pelvis_tx	pelvis_ty	pelvis_tz	hip_flexion_r	hip_adduction_r	hip_rotation_r	knee_angle_r	knee_angle_r_beta	ankle_angle_r	subtalar_angle_r	mtp_angle_r	hip_flexion_l	hip_adduction_l	hip_rotation_l	knee_angle_l	knee_angle_l_beta	ankle_angle_l	subtalar_angle_l	mtp_angle_l	lumbar_extension	lumbar_bending	lumbar_rotation	arm_flex_r	arm_add_r	arm_rot_r	elbow_flex_r	pro_sup_r	arm_flex_l	arm_add_l	arm_rot_l	elbow_flex_l	pro_sup_l
      8.90000000	     -6.27840929	      0.40060399	      9.28377141	     -0.01349485	      0.91622792	      0.09837496	      9.59593275	     -2.13334966	     11.80100266	     11.13277893	      0.19430365	      3.41666791	    -32.44055821	     -7.49999987	      6.34073794	     -4.84138425	     32.69406736	      6.36598612	      0.11110742	      2.65202313	    -31.00855567	     -7.49999987	    -11.99622943	     -4.16420454	     -1.37547403	     46.52065310	      8.57154201	     58.07660234	    134.32316028	    100.32314212	     65.10647999	     20.06951497	     78.52835008	    122.31844587	     68.30643627
      8.91666670	     -6.25942740	      0.07354349	      9.49818013	     -0.01758755	      0.91064553	      0.09738994	     10.89330028	     -1.84583032	     11.27379834	     12.81952551	      0.22374293	      3.73353241	    -32.72988071	     -7.49999987	      6.97265297	     -4.84089255	     32.84989227	      7.10960520	      0.12408602	      2.91435028	    -30.94978854	     -7.49999987	    -12.83244058	     -3.63012943	     -1.51447719	     47.61421837	      8.42774719	     58.02428496	    134.14447493	    100.41692216	     65.77709222	     20.00249907	     78.65032573	    121.96991699	     68.35257169
      8.93333330	     -6.25724981	     -0.10310071	      9.69590282	     -0.01797247	      0.91477732	      0.09701282	     12.05400885	     -1.72177991	     10.75136586	     14.34455930	      0.25035979	      3.71129465	    -32.83312045	     -7.49999987	      7.45683506	     -4.82388324	     32.85291578	      7.78287106	      0.13583673	      3.15655964	    -30.61238050	     -7.49999987	    -13.86463582	     -3.28142995	     -1.86279192	     47.93118396	      8.10232795	     57.67536011	    133.55530869	    100.45076580	     66.47430138	     19.66847739	     78.82779519	    121.63553109	     68.38643748
      8.95000000	     -6.52184633	     -0.13562542	      9.92931479	     -0.02836856	      0.90657580	      0.09691970	     14.07963313	     -1.77119690	     10.23189528	     16.67768369	      0.29108049	      4.49750419	    -32.91746267	     -7.49999987	      8.75621235	     -4.36186648	     32.67104225	      9.18149386	      0.16024730	      3.72109622	    -30.17061666	     -7.49999987	    -15.10205188	     -3.06810126	     -2.32902002	     49.03894443	      7.91304499	     56.38272480	    132.65728113	    100.43504599	     68.14807113	     19.41422065	     78.76522412	    121.44965980	     68.46148025
      8.96666670	     -6.63451392	     -0.26885224	     10.21015283	     -0.02957920	      0.90859062	      0.09701819	     15.71354659	     -1.82776946	      9.38248082	     18.88526069	      0.32960998	      4.83811861	    -33.06535213	     -7.49999987	     10.22862860	     -4.05385107	     32.47887068	     10.45068904	      0.18239893	      3.79793037	    -29.79376728	     -7.49999987	    -16.46511996	     -2.68638410	     -2.50235072	     49.88166117	      7.87542336	     55.75065939	    132.17937507	    100.43361826	     69.35947170	     19.24485615	     78.93638291	    121.22767960	     68.53319922
      8.98333330	     -6.79794620	     -0.08419781	     10.15434971	     -0.03385642	      0.90973847	      0.09658493	     17.37002736	     -2.14685732	      8.74910758	     21.21059865	      0.37019478	      5.40828964	    -32.68465813	     -7.49999987	     11.75784045	     -3.45594862	     31.64168076	     11.98584103	      0.20919239	      4.50950239	    -28.44372517	     -7.49999987	    -17.75688015	     -2.87031062	     -2.89402885	     50.52825243	      7.99242117	     55.48612078	    131.83609435	    100.98464986	     70.77811715	     18.81731150	     79.31183540	    121.08440996	     69.83128434
      9.00000000	     -7.34624456	      0.35962531	     10.01474801	     -0.04021412	      0.90175659	      0.09695003	     19.59192487	     -2.68361391	      8.32162196	     24.26929927	      0.42357918	      6.90600409	    -32.39412455	     -7.49999987	     14.15999258	     -2.39620378	     30.63926813	     13.69325952	      0.23899246	      4.82038827	    -27.61081863	     -7.49999987	    -19.17499930	     -3.44959990	     -2.76440134	     51.57889253	      7.86840477	     55.28728436	    132.33489773	    101.13909560	     72.05807409	     18.97038945	     79.71821186	    121.44246548	     70.39497495
      9.01666670	     -7.41326369	      0.57731434	     10.27674337	     -0.03814756	      0.90157882	      0.09728310	     20.91990161	     -3.03134504	      7.82827100	     26.72790797	      0.46649000	      7.77711165	    -32.26856591	     -7.49999987	     15.50805956	     -1.87367767	     30.08237564	     15.58777084	      0.27205792	      5.48135769	    -26.97339334	     -7.49999987	    -20.75943254	     -3.56964977	     -2.83586085	     52.84959418	      7.63913512	     55.48887920	    132.37987820	    101.23268827	     73.17743002	     18.91251344	     79.99234338	    121.82349227	     70.49039243
      9.03333330	     -7.27787502	      0.90522201	     10.38458786	     -0.03995619	      0.90221475	      0.09714585	     21.75692180	     -3.57302995	      7.44901850	     28.80071255	      0.50266726	      9.23873859	    -31.12147431	     -7.49999987	     16.77431966	     -1.20650842	     28.84082706	     17.60521127	      0.30726890	      6.82666673	    -24.93343469	     -7.49999987	    -22.58729815	     -3.73824979	     -2.94344793	     54.03145204	      7.46222103	     56.31475723	    132.42610088	     99.33556923	     73.96283518	     18.83250589	     80.76642432	    122.59622292	     71.09099570
      9.05000000	     -6.69960215	      0.94443530	     10.46147801	     -0.04476043	      0.89790606	      0.09616964	     22.14362493	     -3.68056389	      7.17820433	     30.38321931	      0.53028721	     10.26575091	    -30.15986513	     -7.49999987	     17.03837769	     -1.13919267	     27.79927879	     19.75839495	      0.34484905	      8.92526110	    -22.85727164	     -7.49999987	    -24.47298672	     -3.49105004	     -3.13806157	     54.82539449	      7.41041056	     56.81029110	    132.31870022	    100.10031986	     74.82073175	     18.70439064	     81.04748634	    122.44385214	     71.31859145
      9.06666670	     -6.17405805	      0.95145767	     10.29598633	     -0.05053066	      0.89262621	      0.09550098	     23.08598391	     -3.80397093	      6.82856309	     32.47445666	      0.56678619	     11.34279293	    -29.44255311	     -7.49999987	     18.27148652	     -0.77973567	     26.72550426	     21.97064577	      0.38346011	     10.11237780	    -21.60109755	     -7.49999987	    -26.41482351	     -3.36013181	     -3.18964425	     55.76782584	      7.39100805	     57.59446491	    132.31294327	    100.91289432	     75.86619983	     18.59910132	     80.99093141	    122.20533279	     71.65182287
      9.08333330	     -5.39569259	      1.06556329	     10.17400365	     -0.05090818	      0.89249522	      0.09599597	     23.33103982	     -3.82264794	      6.67958949	     34.51533131	      0.60240617	     13.33336648	    -27.91074243	     -7.49999987	     18.77667898	     -0.61032865	     25.72235325	     24.20302634	      0.42242250	     11.61835324	    -20.37069764	     -7.49999987	    -28.50729710	     -3.16455544	     -3.16484208	     56.86046933	      7.27944689	     58.58352892	    132.04408539	    100.63033018	     76.71415111	     18.43501615	     81.02514929	    122.24054661	     71.89390086
      9.10000000	     -4.85532564	      1.25798371	     10.35441433	     -0.04898111	      0.88464750	      0.09590057	     23.61079242	     -3.94362992	      6.56444932	     36.65762130	      0.63979619	     14.41486497	    -27.54119084	     -7.49999987	     19.20940471	     -0.26200912	     25.08358992	     26.72817112	      0.46649459	     13.58102620	    -19.34935146	     -7.49999987	    -30.39700761	     -2.99124208	     -2.97058323	     57.50999253	      7.01370839	     59.30986511	    131.79176604	    101.00534420	     77.32118274	     18.59260722	     81.21557652	    122.36779416	     72.11356516
